<svg version="1.1" id="Layer_1" xmlns="http://www.w3.org/2000/svg" xmlns:xlink="http://www.w3.org/1999/xlink" x="0px" y="0px"
	 width="100%" viewBox="0 0 150 150" enable-background="new 0 0 150 150" xml:space="preserve">
<path fill="#FEFEFE" opacity="1.000000" stroke="none" 
	d="
M92.000000,151.000000 
	C61.358486,151.000000 31.216972,151.000000 1.037730,151.000000 
	C1.037730,101.066872 1.037730,51.133701 1.037730,1.100266 
	C50.891285,1.100266 100.782837,1.100266 150.837189,1.100266 
	C150.837189,50.999569 150.837189,100.999741 150.837189,151.000000 
	C131.467392,151.000000 111.983696,151.000000 92.000000,151.000000 
M47.066544,124.540192 
	C47.373753,124.654457 47.680958,124.768723 48.394062,125.047134 
	C48.394062,125.047134 48.822220,125.138672 49.039368,125.744202 
	C49.705196,126.271927 50.371021,126.799644 51.214981,127.626938 
	C51.369362,127.809837 51.560749,127.937119 52.297626,128.222137 
	C52.539127,128.492630 52.780632,128.763123 53.018227,129.828598 
	C54.040688,130.876190 54.892521,132.491638 56.119022,132.860153 
	C59.245655,133.799606 62.540989,134.694016 65.766243,134.684998 
	C73.269585,134.664017 80.839195,134.566605 88.235252,133.491196 
	C90.663406,133.138138 95.200119,132.444412 95.128464,127.294479 
	C95.379829,127.084946 95.669083,126.984604 96.779373,127.015244 
	C104.160339,125.524422 107.734802,119.800476 110.956062,113.906502 
	C114.109627,108.136406 114.820786,99.998306 124.803001,101.743744 
	C125.912827,101.937798 128.490570,99.101440 128.823639,97.369690 
	C129.833679,92.118294 121.919136,84.999535 114.209579,83.234337 
	C112.450264,78.535706 110.690941,73.837067 109.182999,68.576805 
	C109.460800,68.027710 109.738602,67.478615 110.450172,66.914925 
	C110.450172,66.914925 110.884140,66.921310 111.574295,67.236488 
	C113.925179,66.664238 116.748024,66.674713 118.447525,65.298225 
	C119.445320,64.490074 119.417839,61.017746 118.529106,59.538048 
	C115.743874,54.900780 108.509468,53.258492 103.636917,55.411194 
	C101.750145,56.244770 99.653198,56.602623 97.015327,56.991241 
	C96.008339,56.687630 95.001358,56.384014 93.489388,55.896667 
	C93.321648,55.959496 93.153908,56.022320 92.359924,55.833355 
	C90.914856,54.843060 89.469780,53.852768 87.883614,52.258022 
	C87.278786,51.766514 86.673958,51.275005 86.042709,50.206493 
	C86.035851,49.821472 86.028984,49.436451 86.015953,48.286198 
	C86.016724,47.522614 86.017494,46.759026 86.570038,45.486515 
	C86.028641,43.673325 85.487244,41.860138 84.723991,39.498894 
	C84.133942,38.998081 83.543900,38.497265 82.929184,37.238956 
	C81.544418,33.562870 80.325630,29.812872 78.730400,26.230505 
	C76.968941,22.274839 72.042961,20.694128 70.142426,23.676731 
	C67.308762,28.123728 65.490372,33.217659 62.859505,38.672478 
	C61.558254,43.730808 60.257000,48.789139 58.476173,53.977158 
	C58.476173,53.977158 57.985828,54.057018 57.701988,53.739201 
	C56.199543,54.253582 54.697098,54.767960 54.181717,54.944405 
	C53.706657,57.396259 53.395802,59.000629 52.247513,60.317738 
	C49.162273,60.534267 46.077038,60.750797 42.438206,60.341110 
	C37.305550,60.209732 32.172897,60.078354 27.350311,59.317451 
	C29.409227,57.932701 31.459379,56.534687 33.529110,55.166286 
	C36.668209,53.090874 39.820919,51.036037 43.591213,49.282726 
	C48.232243,53.619076 48.232243,53.619076 50.881866,52.989147 
	C48.326321,49.506294 45.618832,46.733269 40.330040,47.056583 
	C39.906292,47.059872 39.482544,47.063160 38.402412,47.099842 
	C37.936996,47.735634 37.471581,48.371426 36.781162,49.439877 
	C36.574619,49.705116 36.311283,49.889065 35.284000,50.004482 
	C34.526100,50.673679 33.768196,51.342880 32.674595,52.622684 
	C29.996782,54.375748 27.125015,55.898495 24.694532,57.945255 
	C22.154444,60.084316 22.336544,62.135990 25.978880,63.017487 
	C25.978880,63.017487 25.970358,63.032009 26.102703,63.734264 
	C27.141600,64.156975 28.180498,64.579689 29.023552,65.718376 
	C27.352884,67.480583 25.682219,69.242783 24.000374,71.000610 
	C24.000374,71.000610 24.007191,71.011009 23.520035,71.222679 
	C23.414495,71.543777 23.308954,71.864883 23.062489,72.157120 
	C23.062489,72.157120 23.208801,72.201736 22.415157,72.196701 
	C18.714792,75.445999 19.050549,81.654991 23.001659,84.999084 
	C23.001659,84.999084 23.095234,84.908508 23.022449,85.728470 
	C22.920286,88.173355 23.901087,89.347008 26.769983,88.773117 
	C26.769983,88.773117 26.998550,89.003006 27.074455,89.634796 
	C27.747889,90.429527 28.421320,91.224258 28.347567,92.100883 
	C27.717817,93.951340 27.088068,95.801796 26.458321,97.652252 
	C28.240141,98.116142 30.021963,98.580032 32.149113,99.662720 
	C32.268322,99.866646 32.387531,100.070580 32.549900,100.983055 
	C33.927017,109.104362 37.906960,115.746101 44.471027,121.709702 
	C44.684689,121.801842 44.898350,121.893974 45.220444,122.562088 
	C45.813705,123.032143 46.406971,123.502197 46.990078,123.999390 
	C46.990078,123.999390 47.017891,124.007545 47.066544,124.540192 
M61.080574,138.789139 
	C62.219215,138.674759 63.357861,138.560379 64.496498,138.445984 
	C64.350945,137.912201 64.205391,137.378418 64.059837,136.844650 
	C62.890907,137.340378 61.721981,137.836121 61.080574,138.789139 
M95.395790,136.200882 
	C95.786758,136.205139 96.177727,136.209381 96.568695,136.213623 
	C96.570274,136.051376 96.582764,135.748108 96.571869,135.747269 
	C96.182747,135.717194 95.791428,135.715363 95.395790,136.200882 
z"/>
<path fill="#F8F6EA" opacity="1.000000" stroke="none" 
	d="
M114.526321,83.987900 
	C121.919136,84.999535 129.833679,92.118294 128.823639,97.369690 
	C128.490570,99.101440 125.912827,101.937798 124.803001,101.743744 
	C114.820786,99.998306 114.109627,108.136406 110.956062,113.906502 
	C107.734802,119.800476 104.160339,125.524422 96.573273,126.730804 
	C97.321182,125.009605 98.275185,123.572853 99.598824,122.149933 
	C101.400299,120.504211 102.832138,118.844666 104.549271,116.998238 
	C110.411171,113.288612 112.196022,108.848007 110.196129,103.493958 
	C110.843803,102.461395 111.374336,101.698425 112.305641,100.945648 
	C117.139359,99.428894 122.507309,101.643318 126.529533,98.472916 
	C126.456322,97.990936 126.383102,97.508949 126.309891,97.026970 
	C121.857727,97.026970 117.405556,97.026970 112.502258,97.028732 
	C109.041191,97.077866 106.031258,97.125229 102.683350,97.097610 
	C102.317055,96.056969 102.288734,95.091309 102.589592,93.992752 
	C107.481598,91.384789 113.064415,90.109047 114.526321,83.987900 
z"/>
<path fill="#E1B827" opacity="1.000000" stroke="none" 
	d="
M44.026154,121.171791 
	C37.906960,115.746101 33.927017,109.104362 32.884941,100.546463 
	C36.107750,100.707954 38.995522,101.306030 42.219868,101.995369 
	C44.329521,103.406593 46.102600,104.726555 47.925934,106.354340 
	C48.333351,107.394936 48.690517,108.127693 49.110710,109.096481 
	C49.325691,109.635551 49.554768,109.859810 49.955986,110.264488 
	C50.146458,110.681061 50.241924,110.838417 50.305511,111.279625 
	C50.246967,111.941246 50.220299,112.319016 50.032330,113.020592 
	C47.922737,115.953537 45.974445,118.562668 44.026154,121.171791 
z"/>
<path fill="#0E8FAE" opacity="1.000000" stroke="none" 
	d="
M26.998550,89.003006 
	C26.998550,89.003006 26.769983,88.773117 26.495743,88.421318 
	C25.179413,87.015846 24.137323,85.962181 23.095234,84.908508 
	C23.095234,84.908508 23.001659,84.999084 23.016598,84.553093 
	C23.090624,80.138649 23.149714,76.170189 23.208801,72.201736 
	C23.208801,72.201736 23.062489,72.157120 23.365150,72.057602 
	C23.780939,71.642387 23.894066,71.326698 24.007191,71.011009 
	C24.007191,71.011009 24.000374,71.000610 24.325859,70.847519 
	C28.245438,67.157043 32.485878,66.747383 37.051407,68.479340 
	C36.600697,70.194809 36.193810,71.553841 35.510796,73.137001 
	C34.416359,76.168518 33.598053,78.975891 32.552559,82.094833 
	C31.833256,84.896034 31.341143,87.385681 30.512964,89.891907 
	C29.117449,89.606651 28.058001,89.304832 26.998550,89.003006 
z"/>
<path fill="#D6A71B" opacity="1.000000" stroke="none" 
	d="
M44.248589,121.440750 
	C45.974445,118.562668 47.922737,115.953537 50.299347,113.279121 
	C53.487076,114.262703 56.246487,115.311569 59.077351,116.656372 
	C60.115116,117.648499 61.081432,118.344688 62.002769,119.365692 
	C62.304707,121.118675 62.651630,122.546822 62.669846,123.981895 
	C61.221241,125.677826 60.101345,127.366837 58.648380,129.041321 
	C57.871426,128.996216 57.427540,128.965637 56.986958,128.587219 
	C56.349575,127.473602 55.708893,126.707848 55.004559,125.603287 
	C52.946720,123.015533 50.911343,122.770241 48.822220,125.138672 
	C48.822220,125.138672 48.394062,125.047134 48.080299,124.768127 
	C47.573112,124.241348 47.323563,124.080826 47.017891,124.007545 
	C47.017891,124.007545 46.990078,123.999390 46.967064,123.673782 
	C46.333374,122.894150 45.722691,122.440132 45.112007,121.986107 
	C44.898350,121.893974 44.684689,121.801842 44.248589,121.440750 
z"/>
<path fill="#F3F4F4" opacity="1.000000" stroke="none" 
	d="
M97.652000,57.177200 
	C99.653198,56.602623 101.750145,56.244770 103.636917,55.411194 
	C108.509468,53.258492 115.743874,54.900780 118.529106,59.538048 
	C119.417839,61.017746 119.445320,64.490074 118.447525,65.298225 
	C116.748024,66.674713 113.925179,66.664238 111.491470,66.810822 
	C113.167542,65.813354 114.926437,65.241547 116.685341,64.669739 
	C116.563927,64.216576 116.442520,63.763412 116.321114,63.310246 
	C112.422073,63.310246 108.523026,63.310246 104.280823,63.198135 
	C102.979118,63.036285 102.020576,62.986538 101.059738,62.632988 
	C99.922287,60.611862 98.787140,58.894531 97.652000,57.177200 
z"/>
<path fill="#0C2A66" opacity="1.000000" stroke="none" 
	d="
M88.024712,52.862473 
	C89.469780,53.852768 90.914856,54.843060 92.672249,56.288460 
	C93.331772,57.475590 93.678970,58.207611 94.076286,59.253845 
	C94.756386,60.010773 95.386360,60.453495 96.041550,61.270538 
	C97.050713,64.433556 98.034668,67.222237 99.009468,70.376663 
	C97.338936,72.819023 95.677551,74.895653 94.008781,76.598816 
	C93.615463,75.133621 93.229530,74.041901 92.836578,72.593445 
	C92.054657,70.520294 91.279762,68.803879 90.589775,66.767708 
	C89.498512,65.020370 88.322334,63.592785 87.064133,61.779381 
	C86.588959,59.909431 86.195801,58.425308 85.882278,56.585526 
	C86.649521,55.107403 87.337120,53.984940 88.024712,52.862473 
z"/>
<path fill="#F2EFF1" opacity="1.000000" stroke="none" 
	d="
M85.802643,56.941181 
	C86.195801,58.425308 86.588959,59.909431 86.963943,62.133095 
	C85.932533,66.556297 84.919289,70.239960 83.617676,74.047287 
	C82.991219,74.898857 82.653114,75.626755 82.033524,76.180611 
	C81.542702,75.936821 81.333382,75.867065 81.255493,75.456863 
	C81.586990,69.780548 81.942741,64.444229 81.927040,59.108994 
	C81.918037,56.048344 81.306168,52.989468 80.939445,49.611107 
	C80.251877,48.230068 79.590561,47.167721 78.976570,45.885025 
	C79.023888,45.664673 79.080338,45.217850 79.299927,45.071075 
	C79.679909,44.616268 79.840302,44.308228 80.295769,43.858910 
	C81.287125,42.694847 81.983414,41.672062 82.852890,40.394894 
	C83.490005,41.401806 84.025040,42.247379 84.945847,43.702637 
	C84.945847,41.996704 84.945847,41.021828 84.945847,40.046947 
	C85.487244,41.860138 86.028641,43.673325 86.042099,45.925472 
	C85.683487,47.260098 85.852806,48.155762 86.022125,49.051430 
	C86.028984,49.436451 86.035851,49.821472 85.772957,50.758949 
	C85.603020,53.187996 85.702835,55.064587 85.802643,56.941181 
z"/>
<path fill="#132751" opacity="1.000000" stroke="none" 
	d="
M53.084949,60.605000 
	C53.395802,59.000629 53.706657,57.396259 54.181717,54.944405 
	C54.697098,54.767960 56.199543,54.253582 57.848297,54.224152 
	C57.993576,55.143902 57.992546,55.578693 57.831276,56.332317 
	C57.120728,57.655495 56.588860,58.670471 56.016956,59.662373 
	C53.328831,64.324593 53.389019,70.506546 47.517784,73.521889 
	C45.978085,74.312645 45.803425,77.761284 44.631142,79.992973 
	C43.520241,79.999275 42.780087,80.001923 42.122971,79.755280 
	C41.820084,78.683868 41.434155,77.861725 41.228252,76.894897 
	C41.175190,76.217636 40.942101,75.685074 40.873470,74.834656 
	C41.848141,73.293663 42.666336,72.075737 43.466755,70.846237 
	C44.761711,68.857094 45.802372,66.632378 47.401257,64.930763 
	C49.009201,63.219521 51.167702,62.025608 53.084949,60.605000 
z"/>
<path fill="#0E1631" opacity="1.000000" stroke="none" 
	d="
M114.367950,83.611115 
	C113.064415,90.109047 107.481598,91.384789 102.306511,93.822701 
	C101.464622,93.188126 101.235001,92.590706 101.344757,91.945946 
	C103.619858,89.956696 106.676186,88.287064 107.229622,86.009285 
	C108.067451,82.561012 107.163170,78.689453 107.278580,74.750580 
	C107.447281,72.168518 107.336502,69.833618 107.482254,67.660324 
	C108.136398,68.260765 108.534012,68.699600 108.931625,69.138435 
	C110.690941,73.837067 112.450264,78.535706 114.367950,83.611115 
z"/>
<path fill="#C5C8CB" opacity="1.000000" stroke="none" 
	d="
M58.955750,53.847473 
	C60.257000,48.789139 61.558254,43.730808 63.347939,38.313484 
	C64.809143,37.626549 65.781906,37.298603 66.943832,37.158371 
	C68.541901,37.944454 69.950798,38.542831 71.279633,39.702759 
	C71.261780,41.019302 71.323990,41.774300 71.164352,42.757725 
	C70.427307,45.690830 69.912117,48.395504 69.038353,51.059509 
	C67.803413,50.672234 66.927040,50.325634 66.164719,49.671669 
	C66.278763,47.719936 66.278763,46.075569 66.278763,44.431202 
	C65.916016,44.427647 65.553261,44.424088 65.190514,44.420528 
	C64.427719,48.651348 63.664932,52.882168 62.620903,56.982460 
	C61.921093,56.196255 61.502522,55.540581 60.980904,54.565502 
	C60.237156,54.113220 59.596455,53.980347 58.955750,53.847473 
z"/>
<path fill="#F8F6EA" opacity="1.000000" stroke="none" 
	d="
M94.849289,127.668800 
	C95.200119,132.444412 90.663406,133.138138 88.235252,133.491196 
	C80.839195,134.566605 73.269585,134.664017 65.766243,134.684998 
	C62.540989,134.694016 59.245655,133.799606 56.119022,132.860153 
	C54.892521,132.491638 54.040688,130.876190 53.287415,129.346039 
	C53.732281,128.799179 53.907963,128.734863 54.329453,128.817749 
	C54.946064,129.049133 55.316872,129.133286 55.919537,129.483795 
	C57.467846,130.154022 58.784302,130.557938 60.329865,131.172485 
	C61.374260,131.497116 62.189552,131.611130 63.273109,131.854568 
	C63.739540,131.971298 63.937706,131.958603 64.366455,132.154877 
	C65.396568,132.517502 66.196091,132.671143 67.245674,132.901428 
	C67.665215,132.937103 67.834694,132.896118 68.449379,132.917847 
	C71.575462,132.911804 74.256348,132.843079 77.322205,132.830475 
	C78.472168,132.793533 79.237137,132.700485 80.372162,132.666656 
	C85.444572,131.040161 90.146935,129.354477 94.849289,127.668800 
z"/>
<path fill="#DFCECA" opacity="1.000000" stroke="none" 
	d="
M66.754669,36.970657 
	C65.781906,37.298603 64.809143,37.626549 63.538185,37.995415 
	C65.490372,33.217659 67.308762,28.123728 70.142426,23.676731 
	C72.042961,20.694128 76.968941,22.274839 78.730400,26.230505 
	C80.325630,29.812872 81.544418,33.562870 82.667603,37.480423 
	C81.571526,37.132431 80.737038,36.542976 79.829636,35.598545 
	C78.209312,31.985771 76.723190,28.695745 75.045639,25.506403 
	C74.805672,25.050169 73.640068,25.080803 72.667900,24.985912 
	C72.313835,25.389036 72.194725,25.692362 71.955017,26.101582 
	C71.834404,26.207476 71.775543,26.523031 71.523712,26.699284 
	C71.169037,27.263672 71.066200,27.651806 70.861328,28.131746 
	C70.759285,28.223553 70.738747,28.497309 70.461929,28.725403 
	C69.041634,31.625883 67.898148,34.298267 66.754669,36.970657 
z"/>
<path fill="#121C35" opacity="1.000000" stroke="none" 
	d="
M52.666229,60.461369 
	C51.167702,62.025608 49.009201,63.219521 47.401257,64.930763 
	C45.802372,66.632378 44.761711,68.857094 43.466755,70.846237 
	C42.666336,72.075737 41.848141,73.293663 40.550682,74.725388 
	C38.637932,74.260269 37.212425,73.586563 35.786919,72.912865 
	C36.193810,71.553841 36.600697,70.194809 37.349510,68.340668 
	C38.867825,66.601067 40.044220,65.356583 41.502876,63.955193 
	C42.187363,62.854637 42.589581,61.910984 42.991798,60.967327 
	C46.077038,60.750797 49.162273,60.534267 52.666229,60.461369 
z"/>
<path fill="#E1E1E1" opacity="1.000000" stroke="none" 
	d="
M39.058796,47.066448 
	C39.482544,47.063160 39.906292,47.059872 40.811111,47.286987 
	C41.850735,48.002415 42.409290,48.487438 42.967850,48.972458 
	C39.820919,51.036037 36.668209,53.090874 33.529110,55.166286 
	C31.459379,56.534687 29.409227,57.932701 26.924227,59.845352 
	C26.321091,61.259411 26.144039,62.145569 25.966988,63.031731 
	C22.336544,62.135990 22.154444,60.084316 24.694532,57.945255 
	C27.125015,55.898495 29.996782,54.375748 33.162994,52.290588 
	C34.431316,51.302898 35.211235,50.647308 35.991154,49.991718 
	C36.311283,49.889065 36.574619,49.705116 37.210617,49.182816 
	C38.112980,48.305988 38.585888,47.686218 39.058796,47.066448 
z"/>
<path fill="#CDCECF" opacity="1.000000" stroke="none" 
	d="
M25.972935,63.024609 
	C26.144039,62.145569 26.321091,61.259411 26.769192,60.160110 
	C32.172897,60.078354 37.305550,60.209732 42.715004,60.654221 
	C42.589581,61.910984 42.187363,62.854637 41.043091,63.918102 
	C37.554363,64.021378 34.807697,64.004845 31.785606,63.710476 
	C29.663578,63.299099 27.816967,63.165554 25.970358,63.032009 
	C25.970358,63.032009 25.978880,63.017487 25.972935,63.024609 
z"/>
<path fill="#D8952C" opacity="1.000000" stroke="none" 
	d="
M94.988876,127.481644 
	C90.146935,129.354477 85.444572,131.040161 80.435074,132.369324 
	C80.772453,131.015015 81.416969,130.017242 82.374222,128.876282 
	C83.790611,128.478073 84.894272,128.223038 86.392426,127.978165 
	C90.555023,127.154686 94.872925,127.182869 96.363953,122.098022 
	C97.591438,122.083160 98.410316,122.109634 99.229187,122.136108 
	C98.275185,123.572853 97.321182,125.009605 96.181702,126.719910 
	C95.669083,126.984604 95.379829,127.084946 94.988876,127.481644 
z"/>
<path fill="#C2E5EA" opacity="1.000000" stroke="none" 
	d="
M32.061028,63.988312 
	C34.807697,64.004845 37.554363,64.021378 40.760822,64.074997 
	C40.044220,65.356583 38.867825,66.601067 37.393326,67.984222 
	C32.485878,66.747383 28.245438,67.157043 24.331448,70.849709 
	C25.682219,69.242783 27.352884,67.480583 29.418736,65.337250 
	C30.562956,64.633514 31.311993,64.310913 32.061028,63.988312 
z"/>
<path fill="#300E1C" opacity="1.000000" stroke="none" 
	d="
M41.883293,101.904114 
	C38.995522,101.306030 36.107750,100.707954 32.863358,100.192184 
	C32.387531,100.070580 32.268322,99.866646 32.026325,99.008583 
	C31.923340,97.891029 31.943138,97.427620 32.286285,96.952591 
	C33.732510,96.381630 34.855385,95.822281 36.402206,95.209816 
	C38.531055,95.216011 40.235954,95.275314 41.878006,95.633850 
	C40.380775,96.623314 38.946396,97.313545 36.800438,98.346184 
	C38.783848,98.975945 40.381760,99.483307 41.999413,100.310875 
	C41.973869,101.055428 41.928581,101.479767 41.883293,101.904114 
z"/>
<path fill="#DBD9D9" opacity="1.000000" stroke="none" 
	d="
M31.962938,96.964203 
	C31.943138,97.427620 31.923340,97.891029 31.853662,98.699181 
	C30.021963,98.580032 28.240141,98.116142 26.458321,97.652252 
	C27.088068,95.801796 27.717817,93.951340 29.048943,92.051620 
	C30.189825,91.991745 30.629332,91.981117 31.173779,92.170044 
	C31.278717,92.369606 31.287102,92.820457 31.028362,92.994781 
	C31.191595,93.786041 31.613569,94.402969 31.873573,95.331726 
	C31.795382,96.083771 31.879160,96.523987 31.962938,96.964203 
z"/>
<path fill="#BEBFBF" opacity="1.000000" stroke="none" 
	d="
M104.623985,63.310246 
	C108.523026,63.310246 112.422073,63.310246 116.321114,63.310246 
	C116.442520,63.763412 116.563927,64.216576 116.685341,64.669739 
	C114.926437,65.241547 113.167542,65.813354 111.146393,66.653229 
	C110.884140,66.921310 110.450172,66.914925 110.001938,66.644730 
	C108.604019,66.262939 107.654335,66.151344 106.440521,65.910812 
	C105.658920,64.958000 105.141457,64.134125 104.623985,63.310246 
z"/>
<path fill="#DDDADB" opacity="1.000000" stroke="none" 
	d="
M79.902550,35.953522 
	C80.737038,36.542976 81.571526,37.132431 82.679932,37.859169 
	C83.543900,38.497265 84.133942,38.998081 84.834915,39.772919 
	C84.945847,41.021828 84.945847,41.996704 84.945847,43.702637 
	C84.025040,42.247379 83.490005,41.401806 82.852890,40.394894 
	C81.983414,41.672062 81.287125,42.694847 79.994934,43.600525 
	C79.216080,41.319603 79.033119,39.155785 78.951248,36.747765 
	C79.335739,36.320213 79.619148,36.136868 79.902550,35.953522 
z"/>
<path fill="#C2E5EA" opacity="1.000000" stroke="none" 
	d="
M22.811979,72.199219 
	C23.149714,76.170189 23.090624,80.138649 23.067284,84.512177 
	C19.050549,81.654991 18.714792,75.445999 22.811979,72.199219 
z"/>
<path fill="#F1F2F3" opacity="1.000000" stroke="none" 
	d="
M43.279530,49.127594 
	C42.409290,48.487438 41.850735,48.002415 41.128929,47.286392 
	C45.618832,46.733269 48.326321,49.506294 50.881866,52.989147 
	C48.232243,53.619076 48.232243,53.619076 43.279530,49.127594 
z"/>
<path fill="#0F1A36" opacity="1.000000" stroke="none" 
	d="
M96.016342,60.896214 
	C95.386360,60.453495 94.756386,60.010773 94.073441,58.897636 
	C94.011772,57.511620 94.003075,56.796009 93.994370,56.080402 
	C95.001358,56.384014 96.008339,56.687630 97.333664,57.084221 
	C98.787140,58.894531 99.922287,60.611862 101.030266,62.662327 
	C101.003098,62.995464 100.943710,63.053673 100.624649,62.988327 
	C98.875847,62.247391 97.446091,61.571800 96.016342,60.896214 
z"/>
<path fill="#E3D049" opacity="1.000000" stroke="none" 
	d="
M54.083649,128.670532 
	C53.907963,128.734863 53.732281,128.799179 53.289368,128.948547 
	C52.780632,128.763123 52.539127,128.492630 52.015976,127.917664 
	C51.569118,127.353958 51.336624,127.258682 51.036850,127.327370 
	C50.371021,126.799644 49.705196,126.271927 48.930794,125.441437 
	C50.911343,122.770241 52.946720,123.015533 54.869789,125.870071 
	C54.560333,127.207283 54.321995,127.938911 54.083649,128.670532 
z"/>
<path fill="#DDDADB" opacity="1.000000" stroke="none" 
	d="
M85.882286,56.585526 
	C85.702835,55.064587 85.603020,53.187996 85.786163,51.047447 
	C86.673958,51.275005 87.278786,51.766514 87.954163,52.560249 
	C87.337120,53.984940 86.649521,55.107403 85.882286,56.585526 
z"/>
<path fill="#E1E1E1" opacity="1.000000" stroke="none" 
	d="
M31.785606,63.710480 
	C31.311993,64.310913 30.562956,64.633514 29.516657,64.979263 
	C28.180498,64.579689 27.141600,64.156975 26.036530,63.383137 
	C27.816967,63.165554 29.663578,63.299099 31.785606,63.710480 
z"/>
<path fill="#F8F6EA" opacity="1.000000" stroke="none" 
	d="
M60.816814,138.560486 
	C61.721981,137.836121 62.890907,137.340378 64.059837,136.844650 
	C64.205391,137.378418 64.350945,137.912201 64.496498,138.445984 
	C63.357861,138.560379 62.219215,138.674759 60.816814,138.560486 
z"/>
<path fill="#C2E5EA" opacity="1.000000" stroke="none" 
	d="
M23.058842,85.318489 
	C24.137323,85.962181 25.179413,87.015846 26.343536,88.365585 
	C23.901087,89.347008 22.920286,88.173355 23.058842,85.318489 
z"/>
<path fill="#C2E5EA" opacity="1.000000" stroke="none" 
	d="
M31.068836,91.970490 
	C30.629332,91.981117 30.189825,91.991745 29.422535,92.010674 
	C28.421320,91.224258 27.747889,90.429527 27.036503,89.318901 
	C28.058001,89.304832 29.117449,89.606651 30.651081,90.228073 
	C31.106453,91.021935 31.087645,91.496216 31.068836,91.970490 
z"/>
<path fill="#F3F4F4" opacity="1.000000" stroke="none" 
	d="
M106.704651,66.039749 
	C107.654335,66.151344 108.604019,66.262939 109.785065,66.652031 
	C109.738602,67.478615 109.460800,68.027710 109.057312,68.857620 
	C108.534012,68.699600 108.136398,68.260765 107.432549,67.405365 
	C106.985756,66.672447 106.845200,66.356094 106.704651,66.039749 
z"/>
<path fill="#091C3F" opacity="1.000000" stroke="none" 
	d="
M58.715965,53.912315 
	C59.596455,53.980347 60.237156,54.113220 60.776474,54.848438 
	C59.780563,55.638351 58.886040,55.825920 57.991512,56.013489 
	C57.992546,55.578693 57.993576,55.143902 57.990219,54.383064 
	C57.985828,54.057018 58.476173,53.977158 58.715965,53.912315 
z"/>
<path fill="#F1F2F3" opacity="1.000000" stroke="none" 
	d="
M35.637577,49.998100 
	C35.211235,50.647308 34.431316,51.302898 33.330849,51.985283 
	C33.768196,51.342880 34.526100,50.673679 35.637577,49.998100 
z"/>
<path fill="#F8F6EA" opacity="1.000000" stroke="none" 
	d="
M95.398102,135.955246 
	C95.791428,135.715363 96.182747,135.717194 96.571869,135.747269 
	C96.582764,135.748108 96.570274,136.051376 96.568695,136.213623 
	C96.177727,136.209381 95.786758,136.205139 95.398102,135.955246 
z"/>
<path fill="#F1F2F3" opacity="1.000000" stroke="none" 
	d="
M38.730606,47.083145 
	C38.585888,47.686218 38.112980,48.305988 37.323120,48.966488 
	C37.471581,48.371426 37.936996,47.735634 38.730606,47.083145 
z"/>
<path fill="#E1B827" opacity="1.000000" stroke="none" 
	d="
M45.166225,122.274094 
	C45.722691,122.440132 46.333374,122.894150 46.972145,123.660210 
	C46.406971,123.502197 45.813705,123.032143 45.166225,122.274094 
z"/>
<path fill="#DDDADB" opacity="1.000000" stroke="none" 
	d="
M86.019043,48.668816 
	C85.852806,48.155762 85.683487,47.260098 85.766212,46.179935 
	C86.017494,46.759026 86.016724,47.522614 86.019043,48.668816 
z"/>
<path fill="#111E4D" opacity="1.000000" stroke="none" 
	d="
M93.741882,55.988533 
	C94.003075,56.796009 94.011772,57.511620 94.023315,58.583431 
	C93.678970,58.207611 93.331772,57.475590 92.985367,56.414352 
	C93.153908,56.022320 93.321648,55.959496 93.741882,55.988533 
z"/>
<path fill="#C2E5EA" opacity="1.000000" stroke="none" 
	d="
M23.763615,71.116844 
	C23.894066,71.326698 23.780939,71.642387 23.435612,72.072029 
	C23.308954,71.864883 23.414495,71.543777 23.763615,71.116844 
z"/>
<path fill="#E1B827" opacity="1.000000" stroke="none" 
	d="
M47.042217,124.273865 
	C47.323563,124.080826 47.573112,124.241348 47.877350,124.686050 
	C47.680958,124.768723 47.373753,124.654457 47.042217,124.273865 
z"/>
<path fill="#F8F6EA" opacity="1.000000" stroke="none" 
	d="
M51.125916,127.477158 
	C51.336624,127.258682 51.569118,127.353958 51.761734,127.810989 
	C51.560749,127.937119 51.369362,127.809837 51.125916,127.477158 
z"/>
<path fill="#D6892B" opacity="1.000000" stroke="none" 
	d="
M110.078987,103.763550 
	C112.196022,108.848007 110.411171,113.288612 104.103523,116.945038 
	C101.594185,117.074532 99.815895,117.070358 97.925049,116.834450 
	C97.541451,116.403870 97.270393,116.205025 96.994980,115.756210 
	C96.987518,115.339592 96.984421,115.172951 96.989426,114.583443 
	C97.002762,112.483765 97.007996,110.806946 97.321350,109.251106 
	C99.265244,109.990898 101.425797,111.559036 102.416725,111.011276 
	C103.996155,110.138214 104.797028,107.856689 106.268326,106.088882 
	C107.766006,105.259171 108.922501,104.511360 110.078987,103.763550 
z"/>
<path fill="#F2B74C" opacity="1.000000" stroke="none" 
	d="
M98.037605,117.066185 
	C99.815895,117.070358 101.594185,117.074532 103.818222,117.131912 
	C102.832138,118.844666 101.400299,120.504211 99.598831,122.149933 
	C98.410316,122.109634 97.591438,122.083160 95.936722,122.054764 
	C92.395988,122.424652 89.691093,122.796478 86.981384,122.771271 
	C86.965187,121.589760 86.953804,120.805283 87.125130,119.778709 
	C87.869675,119.327072 88.431511,119.117538 89.212738,118.831497 
	C89.715569,118.598625 89.917351,118.370132 90.406769,118.053925 
	C91.515114,118.029762 92.254166,118.021187 93.275131,118.140297 
	C94.422989,117.871712 95.288940,117.475433 96.366989,117.088043 
	C96.579079,117.096939 97.002533,117.066513 97.261299,117.072052 
	C97.692581,117.073784 97.865097,117.069984 98.037605,117.066185 
z"/>
<path fill="#0B0B1A" opacity="1.000000" stroke="none" 
	d="
M110.196129,103.493958 
	C108.922501,104.511360 107.766006,105.259171 106.039444,106.024971 
	C105.469368,106.042961 104.993431,106.021080 105.120987,105.713943 
	C105.582817,103.483711 105.917084,101.560623 106.258186,99.598198 
	C104.940857,99.107368 103.497833,98.569710 102.257553,97.940765 
	C102.716507,97.681221 102.903519,97.455589 103.021324,97.172592 
	C106.031258,97.125229 109.041191,97.077866 112.610809,97.373039 
	C112.748611,98.788864 112.326729,99.862152 111.904861,100.935440 
	C111.374336,101.698425 110.843803,102.461395 110.196129,103.493958 
z"/>
<path fill="#C7C3BE" opacity="1.000000" stroke="none" 
	d="
M112.305634,100.945648 
	C112.326729,99.862152 112.748611,98.788864 113.061935,97.371277 
	C117.405556,97.026970 121.857727,97.026970 126.309891,97.026970 
	C126.383102,97.508949 126.456322,97.990936 126.529533,98.472916 
	C122.507309,101.643318 117.139359,99.428894 112.305634,100.945648 
z"/>
<path fill="#1F1643" opacity="1.000000" stroke="none" 
	d="
M102.683350,97.097610 
	C102.903519,97.455589 102.716507,97.681221 101.904488,97.959991 
	C100.230522,98.381416 99.112343,98.692329 97.718445,98.764542 
	C97.967796,96.018967 98.492882,93.512085 99.313904,91.023758 
	C100.075012,91.359306 100.540192,91.676292 101.005371,91.993286 
	C101.235001,92.590706 101.464622,93.188126 101.977325,93.955597 
	C102.288734,95.091309 102.317055,96.056969 102.683350,97.097610 
z"/>
<path fill="#9B1669" opacity="1.000000" stroke="none" 
	d="
M49.047684,108.860458 
	C48.690517,108.127693 48.333351,107.394936 48.219357,106.141953 
	C49.743938,104.429779 50.845993,102.855721 52.354519,102.147598 
	C54.042900,101.355049 56.099545,101.347023 58.199875,101.255402 
	C60.269409,101.678688 62.135010,101.844185 64.006561,102.439026 
	C64.077850,107.347084 64.257896,111.877525 59.006393,113.520889 
	C58.253601,110.767807 60.846130,107.387016 56.781387,106.134155 
	C56.180981,108.429794 55.580570,110.725433 54.643120,113.019623 
	C52.983181,112.344032 51.660286,111.669899 50.337387,110.995766 
	C50.241924,110.838417 50.146458,110.681061 49.956261,110.002274 
	C49.590244,109.274048 49.318966,109.067253 49.047684,108.860458 
z"/>
<path fill="#81165D" opacity="1.000000" stroke="none" 
	d="
M57.995941,100.997604 
	C56.099545,101.347023 54.042900,101.355049 52.354519,102.147598 
	C50.845993,102.855721 49.743938,104.429779 48.169106,105.834129 
	C46.102600,104.726555 44.329521,103.406593 42.219868,101.995369 
	C41.928581,101.479767 41.973869,101.055428 42.299004,100.303024 
	C43.041862,99.651039 43.504883,99.327118 44.341557,98.999954 
	C46.410931,97.868744 48.106651,96.740776 49.806091,95.610336 
	C51.399696,96.341080 53.152676,97.144897 55.088795,98.194672 
	C56.125267,99.351189 60.385181,96.632675 57.995941,100.997604 
z"/>
<path fill="#90263E" opacity="1.000000" stroke="none" 
	d="
M50.305511,111.279625 
	C51.660286,111.669899 52.983181,112.344032 54.650688,113.011047 
	C54.995304,113.003937 54.985115,113.017365 55.079140,113.188644 
	C55.465210,113.243721 55.757252,113.127525 56.335876,113.144814 
	C57.418629,113.505867 58.214802,113.733437 59.010975,113.961006 
	C64.257896,111.877525 64.077850,107.347084 64.304817,102.417496 
	C65.059181,101.639214 65.521233,101.311813 66.268669,100.998123 
	C66.743721,101.029327 66.933395,101.046829 67.079056,101.464920 
	C66.477409,104.271500 66.071663,106.725784 65.325523,109.071800 
	C64.281204,112.355339 63.288975,115.825249 59.005901,116.360435 
	C56.246487,115.311569 53.487076,114.262703 50.460648,112.955307 
	C50.220299,112.319016 50.246967,111.941246 50.305511,111.279625 
z"/>
<path fill="#D6A71B" opacity="1.000000" stroke="none" 
	d="
M49.110714,109.096481 
	C49.318966,109.067253 49.590244,109.274048 49.861248,109.743057 
	C49.554768,109.859810 49.325691,109.635551 49.110714,109.096481 
z"/>
<path fill="#131735" opacity="1.000000" stroke="none" 
	d="
M31.173777,92.170044 
	C31.087645,91.496216 31.106453,91.021935 30.987144,90.211494 
	C31.341143,87.385681 31.833256,84.896034 32.774620,82.357796 
	C35.831985,80.552666 38.440105,78.796127 41.048225,77.039589 
	C41.434155,77.861725 41.820084,78.683868 41.967369,80.086761 
	C41.962315,82.817635 37.052494,85.978546 42.983063,87.402985 
	C42.987976,88.842659 42.985115,89.889961 42.648010,90.897614 
	C40.317486,88.012848 38.344650,87.348282 35.726444,90.373062 
	C34.688931,91.571686 32.792477,92.026810 31.287102,92.820457 
	C31.287102,92.820457 31.278717,92.369606 31.173777,92.170044 
z"/>
<path fill="#020D20" opacity="1.000000" stroke="none" 
	d="
M41.228252,76.894897 
	C38.440105,78.796127 35.831985,80.552666 33.001808,82.046234 
	C33.598053,78.975891 34.416359,76.168518 35.510796,73.137001 
	C37.212425,73.586563 38.637932,74.260269 40.386227,75.043243 
	C40.942101,75.685074 41.175190,76.217636 41.228252,76.894897 
z"/>
<path fill="#DC9F1A" opacity="1.000000" stroke="none" 
	d="
M59.077351,116.656372 
	C63.288975,115.825249 64.281204,112.355339 65.325523,109.071800 
	C66.071663,106.725784 66.477409,104.271500 67.262878,101.426979 
	C67.490730,100.988434 67.856415,100.901314 68.149597,101.090698 
	C69.969749,102.855659 71.496704,104.431244 73.014740,106.254456 
	C73.005829,106.502090 72.994133,106.997543 72.713615,107.202988 
	C71.631256,109.619751 70.829414,111.831085 70.024231,114.410637 
	C70.029015,115.514915 70.037155,116.250969 69.700394,116.960983 
	C65.842850,115.009644 66.005379,118.337234 64.766220,119.852524 
	C63.708378,119.492577 62.878067,119.266724 62.047752,119.040871 
	C61.081432,118.344688 60.115116,117.648499 59.077351,116.656372 
z"/>
<path fill="#E8C01F" opacity="1.000000" stroke="none" 
	d="
M76.937225,132.774353 
	C74.256348,132.843079 71.575462,132.911804 68.358200,132.769745 
	C67.546410,132.647583 67.271011,132.736191 66.995613,132.824799 
	C66.196091,132.671143 65.396568,132.517502 64.514999,132.031769 
	C63.956917,131.708160 63.480881,131.716644 63.004845,131.725143 
	C62.189552,131.611130 61.374260,131.497116 60.488281,131.025146 
	C59.938877,130.130066 59.460167,129.592957 58.981453,129.055847 
	C60.101345,127.366837 61.221241,125.677826 62.927395,124.204575 
	C63.866837,125.440422 64.220016,126.460503 64.408218,127.004082 
	C66.847488,127.004082 68.920937,127.004082 71.288467,127.157288 
	C73.367439,129.131775 75.152328,130.953064 76.937225,132.774353 
z"/>
<path fill="#DDAA09" opacity="1.000000" stroke="none" 
	d="
M70.994385,127.004082 
	C68.920937,127.004082 66.847488,127.004082 64.408218,127.004082 
	C64.220016,126.460503 63.866837,125.440422 63.256104,124.197662 
	C62.651630,122.546822 62.304707,121.118675 62.002769,119.365692 
	C62.878067,119.266724 63.708378,119.492577 64.905548,120.137177 
	C67.179726,122.705299 69.087059,124.854691 70.994385,127.004082 
z"/>
<path fill="#E8C01F" opacity="1.000000" stroke="none" 
	d="
M54.329453,128.817749 
	C54.321995,127.938911 54.560333,127.207283 54.933445,126.208878 
	C55.708893,126.707848 56.349575,127.473602 56.659492,128.641663 
	C56.115040,129.101807 55.901360,129.159637 55.687683,129.217453 
	C55.316872,129.133286 54.946064,129.049133 54.329453,128.817749 
z"/>
<path fill="#E3D049" opacity="1.000000" stroke="none" 
	d="
M55.919537,129.483795 
	C55.901360,129.159637 56.115040,129.101807 56.656189,128.989517 
	C57.427540,128.965637 57.871426,128.996216 58.648384,129.041321 
	C59.460167,129.592957 59.938877,130.130066 60.259171,130.814514 
	C58.784302,130.557938 57.467846,130.154022 55.919537,129.483795 
z"/>
<path fill="#0F1A36" opacity="1.000000" stroke="none" 
	d="
M106.440521,65.910812 
	C106.845200,66.356094 106.985756,66.672447 107.176018,67.243759 
	C107.336502,69.833618 107.447281,72.168518 107.136627,74.426361 
	C104.791367,70.584091 102.867538,66.818878 100.943710,63.053673 
	C100.943710,63.053673 101.003098,62.995464 101.032562,62.966125 
	C102.020576,62.986538 102.979118,63.036285 104.280823,63.198135 
	C105.141457,64.134125 105.658920,64.958000 106.440521,65.910812 
z"/>
<path fill="#111E4D" opacity="1.000000" stroke="none" 
	d="
M100.624649,62.988327 
	C102.867538,66.818878 104.791367,70.584091 106.857147,74.673523 
	C107.163170,78.689453 108.067451,82.561012 107.229622,86.009285 
	C106.676186,88.287064 103.619858,89.956696 101.344757,91.945946 
	C100.540192,91.676292 100.075012,91.359306 99.013443,90.875854 
	C96.930405,88.805809 95.443748,86.902229 93.966515,84.568665 
	C93.962669,82.414948 93.949402,80.691216 94.295845,78.981705 
	C95.911369,79.512833 97.167168,80.029747 97.148987,80.022263 
	C98.578094,77.732887 99.733368,75.935234 100.834259,74.104874 
	C102.154739,71.909386 102.803452,69.964058 99.018616,70.010925 
	C98.034668,67.222237 97.050713,64.433556 96.041550,61.270538 
	C97.446091,61.571800 98.875847,62.247391 100.624649,62.988327 
z"/>
<path fill="#941A1D" opacity="1.000000" stroke="none" 
	d="
M83.906044,73.923622 
	C84.919289,70.239960 85.932533,66.556297 87.045967,62.518921 
	C88.322334,63.592785 89.498512,65.020370 90.252121,66.884293 
	C89.572357,69.363350 89.189316,71.399796 89.086990,73.450249 
	C88.927345,76.649452 88.958046,79.858170 88.675858,82.931435 
	C87.994705,82.514542 87.545799,82.229065 87.086662,81.933975 
	C87.076439,81.924362 87.089073,81.891167 87.033417,81.530388 
	C85.953850,78.754280 84.929947,76.338951 83.906044,73.923622 
z"/>
<path fill="#BC253D" opacity="1.000000" stroke="none" 
	d="
M88.908089,83.062851 
	C88.958046,79.858170 88.927345,76.649452 89.086990,73.450249 
	C89.189316,71.399796 89.572357,69.363350 90.167206,67.204041 
	C91.279762,68.803879 92.054657,70.520294 92.568115,72.806396 
	C92.533249,74.922142 92.759827,76.468201 92.924225,78.411789 
	C92.541595,81.491539 92.221146,84.173767 91.897522,86.916107 
	C91.894348,86.976234 91.869400,86.857986 91.612457,86.740204 
	C90.578819,86.073982 89.802124,85.525536 89.013626,84.988388 
	C89.001831,84.999695 89.029251,84.976524 89.039795,84.656189 
	C89.002922,83.911522 88.955505,83.487190 88.908089,83.062851 
z"/>
<path fill="#1D2A61" opacity="1.000000" stroke="none" 
	d="
M99.009468,70.376663 
	C102.803452,69.964058 102.154739,71.909386 100.834259,74.104874 
	C99.733368,75.935234 98.578094,77.732887 97.148987,80.022263 
	C97.167168,80.029747 95.911369,79.512833 94.288818,78.779999 
	C93.922073,78.564072 93.926773,78.159515 93.950798,77.862831 
	C93.988602,77.368187 94.002380,77.170235 94.016159,76.972275 
	C95.677551,74.895653 97.338936,72.819023 99.009468,70.376663 
z"/>
<path fill="#111E4D" opacity="1.000000" stroke="none" 
	d="
M94.008774,76.598816 
	C94.002380,77.170235 93.988602,77.368187 93.717926,77.813599 
	C93.461029,78.061043 92.986397,78.014267 92.986397,78.014267 
	C92.759827,76.468201 92.533249,74.922142 92.575134,73.163124 
	C93.229530,74.041901 93.615463,75.133621 94.008774,76.598816 
z"/>
<path fill="#AA9F9E" opacity="1.000000" stroke="none" 
	d="
M81.124062,75.797302 
	C81.333382,75.867065 81.542702,75.936821 81.939270,76.421219 
	C81.992836,77.150757 81.859146,77.465652 81.448570,77.910233 
	C80.392220,78.633018 79.612755,79.226120 78.483170,79.807640 
	C77.064102,78.876022 75.995155,77.955986 74.675598,76.954071 
	C74.252800,76.836868 74.080620,76.801544 73.898621,76.486526 
	C73.851898,75.836639 73.814995,75.466446 73.826096,74.629166 
	C73.508507,70.028366 73.778481,65.697021 72.574127,61.824142 
	C71.628296,58.782570 71.104118,56.732666 74.401733,54.878075 
	C76.031883,54.489464 77.330482,54.161987 78.732147,54.295471 
	C78.545547,59.707005 78.071411,64.656639 78.046463,69.608543 
	C78.034531,71.974457 77.440865,75.076424 81.124062,75.797302 
z"/>
<path fill="#3C8898" opacity="1.000000" stroke="none" 
	d="
M78.629089,53.834507 
	C77.330482,54.161987 76.031883,54.489464 74.145676,54.694725 
	C72.103004,54.240116 70.647934,53.907722 69.254654,53.269867 
	C69.343269,52.342999 69.370094,51.721588 69.396927,51.100178 
	C69.912117,48.395504 70.427307,45.690830 71.465790,42.716682 
	C73.983238,43.300102 75.977394,44.152996 78.050629,45.253662 
	C78.396217,45.702744 78.662735,45.904057 78.929253,46.105370 
	C79.590561,47.167721 80.251877,48.230068 80.652283,49.704544 
	C79.803947,51.355946 79.216515,52.595226 78.629089,53.834507 
z"/>
<path fill="#DDDADB" opacity="1.000000" stroke="none" 
	d="
M78.732147,54.295471 
	C79.216515,52.595226 79.803947,51.355946 80.678535,50.023228 
	C81.306168,52.989468 81.918037,56.048344 81.927040,59.108994 
	C81.942741,64.444229 81.586990,69.780548 81.255493,75.456863 
	C77.440865,75.076424 78.034531,71.974457 78.046463,69.608543 
	C78.071411,64.656639 78.545547,59.707005 78.732147,54.295471 
z"/>
<path fill="#B1AAAC" opacity="1.000000" stroke="none" 
	d="
M77.971558,45.005890 
	C75.977394,44.152996 73.983238,43.300102 71.687637,42.488251 
	C71.323990,41.774300 71.261780,41.019302 71.437973,39.568844 
	C72.115288,38.512310 72.554207,38.151241 73.330948,37.823601 
	C74.118942,37.818787 74.569115,37.780548 75.344513,37.849854 
	C76.456924,37.664581 77.244095,37.371773 78.234581,37.043953 
	C78.437897,37.008942 78.850159,36.991966 78.850159,36.991966 
	C79.033119,39.155785 79.216080,41.319603 79.699875,43.741806 
	C79.840302,44.308228 79.679909,44.616268 79.026947,44.993454 
	C78.346779,45.043697 78.159172,45.024792 77.971558,45.005890 
z"/>
<path fill="#56102E" opacity="1.000000" stroke="none" 
	d="
M81.725456,77.780540 
	C81.859146,77.465652 81.992836,77.150757 82.220764,76.595261 
	C82.653114,75.626755 82.991219,74.898857 83.617676,74.047287 
	C84.929947,76.338951 85.953850,78.754280 86.676880,81.535812 
	C84.825821,80.528191 83.275642,79.154366 81.725456,77.780540 
z"/>
<path fill="#DDDADB" opacity="1.000000" stroke="none" 
	d="
M78.050629,45.253662 
	C78.159172,45.024792 78.346779,45.043697 78.807358,45.140224 
	C79.080338,45.217850 79.023888,45.664673 78.976570,45.885021 
	C78.662735,45.904057 78.396217,45.702744 78.050629,45.253662 
z"/>
<path fill="#0E255E" opacity="1.000000" stroke="none" 
	d="
M57.831276,56.332317 
	C58.886040,55.825920 59.780563,55.638351 60.879520,55.167843 
	C61.502522,55.540581 61.921093,56.196255 62.538147,57.314594 
	C62.779137,59.204193 62.821648,60.631126 62.571266,62.213806 
	C58.613064,64.968552 56.318554,68.261429 56.831841,73.286926 
	C56.460354,74.045517 56.150936,74.524162 55.605682,75.258636 
	C55.238594,76.671349 55.107334,77.828232 54.625748,78.992203 
	C52.852413,79.677353 51.429405,80.355415 49.636829,81.019592 
	C47.845467,80.666908 46.423676,80.328117 45.001881,79.989319 
	C45.803425,77.761284 45.978085,74.312645 47.517784,73.521889 
	C53.389019,70.506546 53.328831,64.324593 56.016956,59.662373 
	C56.588860,58.670471 57.120728,57.655495 57.831276,56.332317 
z"/>
<path fill="#1D1D55" opacity="1.000000" stroke="none" 
	d="
M44.631142,79.992973 
	C46.423676,80.328117 47.845467,80.666908 49.581520,81.357040 
	C47.588951,83.475792 45.282120,85.243202 42.975288,87.010605 
	C37.052494,85.978546 41.962315,82.817635 41.884331,80.336044 
	C42.780087,80.001923 43.520241,79.999275 44.631142,79.992973 
z"/>
<path fill="#D5D4D2" opacity="1.000000" stroke="none" 
	d="
M69.038353,51.059509 
	C69.370094,51.721588 69.343269,52.342999 69.200104,53.765694 
	C69.944695,61.965862 65.547630,69.812836 70.607040,76.888763 
	C69.480110,76.903252 68.726479,76.851105 67.925644,76.431351 
	C64.011024,67.597137 65.386856,58.763138 66.050674,49.979031 
	C66.927040,50.325634 67.803413,50.672234 69.038353,51.059509 
z"/>
<path fill="#EEE9EE" opacity="1.000000" stroke="none" 
	d="
M66.164719,49.671669 
	C65.386856,58.763138 64.011024,67.597137 67.606552,76.507050 
	C66.565956,76.617462 65.797241,76.284554 65.019592,75.538208 
	C64.295158,70.769203 63.579662,66.413628 62.864162,62.058060 
	C62.821648,60.631126 62.779137,59.204193 62.819382,57.445122 
	C63.664932,52.882168 64.427719,48.651348 65.190514,44.420528 
	C65.553261,44.424088 65.916016,44.427647 66.278763,44.431202 
	C66.278763,46.075569 66.278763,47.719936 66.164719,49.671669 
z"/>
<path fill="#852729" opacity="1.000000" stroke="none" 
	d="
M72.993126,37.790176 
	C72.554207,38.151241 72.115288,38.512310 71.518028,39.007294 
	C69.950798,38.542831 68.541901,37.944454 66.943832,37.158371 
	C67.898148,34.298267 69.041634,31.625883 70.534515,29.144440 
	C70.654846,32.386189 68.459015,35.927635 72.993126,37.790176 
z"/>
<path fill="#E29D07" opacity="1.000000" stroke="none" 
	d="
M71.288467,127.157288 
	C69.087059,124.854691 67.179726,122.705299 65.133072,120.271255 
	C66.005379,118.337234 65.842850,115.009644 70.005531,117.107315 
	C72.512138,119.591095 74.225227,122.040077 76.269249,124.171722 
	C78.001358,125.978111 80.116081,127.417618 82.061493,129.019470 
	C81.416969,130.017242 80.772453,131.015015 80.065025,132.310120 
	C79.237137,132.700485 78.472168,132.793533 77.322205,132.830460 
	C75.152328,130.953064 73.367439,129.131775 71.288467,127.157288 
z"/>
<path fill="#E3D049" opacity="1.000000" stroke="none" 
	d="
M63.273109,131.854568 
	C63.480881,131.716644 63.956917,131.708160 64.284409,131.822784 
	C63.937706,131.958603 63.739540,131.971298 63.273109,131.854568 
z"/>
<path fill="#E3D049" opacity="1.000000" stroke="none" 
	d="
M67.245674,132.901428 
	C67.271011,132.736191 67.546410,132.647583 67.912994,132.707062 
	C67.834694,132.896118 67.665215,132.937103 67.245674,132.901428 
z"/>
<path fill="#A00506" opacity="1.000000" stroke="none" 
	d="
M73.330948,37.823601 
	C68.459015,35.927635 70.654846,32.386189 70.811333,28.916348 
	C70.738747,28.497309 70.759285,28.223553 71.110901,27.950447 
	C71.566864,27.292570 71.671204,26.907801 71.775543,26.523033 
	C71.775543,26.523031 71.834404,26.207476 72.173691,25.985903 
	C72.782310,25.533472 72.912270,25.240734 72.902855,24.886116 
	C73.640068,25.080803 74.805672,25.050169 75.045639,25.506403 
	C76.723190,28.695745 78.209312,31.985771 79.829636,35.598545 
	C79.619148,36.136868 79.335739,36.320213 78.951248,36.747765 
	C78.850159,36.991966 78.437897,37.008942 77.911255,37.007034 
	C76.596161,37.250858 75.807724,37.496586 75.019279,37.742310 
	C74.569115,37.780548 74.118942,37.818787 73.330948,37.823601 
z"/>
<path fill="#852729" opacity="1.000000" stroke="none" 
	d="
M71.523712,26.699286 
	C71.671204,26.907801 71.566864,27.292570 71.212936,27.858639 
	C71.066200,27.651806 71.169037,27.263672 71.523712,26.699286 
z"/>
<path fill="#852729" opacity="1.000000" stroke="none" 
	d="
M72.667900,24.985912 
	C72.912270,25.240734 72.782310,25.533472 72.294296,25.880009 
	C72.194725,25.692362 72.313835,25.389036 72.667900,24.985912 
z"/>
<path fill="#D48905" opacity="1.000000" stroke="none" 
	d="
M82.374222,128.876282 
	C80.116081,127.417618 78.001358,125.978111 76.269249,124.171722 
	C74.225227,122.040077 72.512138,119.591095 70.350433,117.133362 
	C70.037155,116.250969 70.029015,115.514915 70.407562,114.403702 
	C73.526802,114.684662 76.259346,115.340767 79.309120,115.860428 
	C81.069130,114.537926 82.511917,113.351860 83.980515,112.545746 
	C84.000572,113.949516 83.994804,114.973343 83.752106,116.188347 
	C83.006653,118.249130 82.498123,120.118736 81.994034,121.993271 
	C81.998459,121.998199 81.988533,121.990318 81.689529,122.030045 
	C81.073112,122.479774 80.755707,122.889778 80.438293,123.299789 
	C80.958351,123.534126 81.478409,123.768471 82.193298,124.261017 
	C83.592010,125.017410 84.795898,125.515594 85.999252,126.339706 
	C85.998459,127.099754 85.998192,127.533882 85.997925,127.968018 
	C84.894272,128.223038 83.790611,128.478073 82.374222,128.876282 
z"/>
<path fill="#E19003" opacity="1.000000" stroke="none" 
	d="
M86.392426,127.978165 
	C85.998192,127.533882 85.998459,127.099754 86.253662,126.143204 
	C86.667793,124.803299 86.826996,123.985802 86.986206,123.168304 
	C89.691093,122.796478 92.395988,122.424652 95.528107,122.096085 
	C94.872925,127.182869 90.555023,127.154686 86.392426,127.978165 
z"/>
<path fill="#F4EFF7" opacity="1.000000" stroke="none" 
	d="
M31.028362,92.994781 
	C32.792477,92.026810 34.688931,91.571686 35.726444,90.373062 
	C38.344650,87.348282 40.317486,88.012848 42.811760,91.018150 
	C43.309746,91.178329 43.714687,91.142853 43.879005,91.397949 
	C44.659679,92.163376 45.276039,92.673691 45.884033,93.393478 
	C45.875668,93.602943 46.048290,93.985031 45.983719,94.202805 
	C45.919151,94.420586 45.910927,94.874809 45.520279,94.970642 
	C44.066704,95.155853 43.003780,95.245239 41.940857,95.334618 
	C40.235954,95.275314 38.531055,95.216011 36.016792,95.121529 
	C34.150139,95.064209 33.092838,95.042053 32.035542,95.019897 
	C31.613569,94.402969 31.191595,93.786041 31.028362,92.994781 
z"/>
<path fill="#512146" opacity="1.000000" stroke="none" 
	d="
M41.878006,95.633850 
	C43.003780,95.245239 44.066704,95.155853 45.513374,95.281219 
	C45.254047,96.665039 44.610973,97.834122 43.967903,99.003197 
	C43.504883,99.327118 43.041862,99.651039 42.279259,99.982819 
	C40.381760,99.483307 38.783848,98.975945 36.800438,98.346184 
	C38.946396,97.313545 40.380775,96.623314 41.878006,95.633850 
z"/>
<path fill="#512146" opacity="1.000000" stroke="none" 
	d="
M31.873573,95.331726 
	C33.092838,95.042053 34.150139,95.064209 35.592850,95.174644 
	C34.855385,95.822281 33.732510,96.381630 32.286285,96.952591 
	C31.879160,96.523987 31.795382,96.083771 31.873573,95.331726 
z"/>
<path fill="#E09B0F" opacity="1.000000" stroke="none" 
	d="
M81.989601,121.988335 
	C82.498123,120.118736 83.006653,118.249130 84.054703,116.038284 
	C84.679153,114.443542 84.764091,113.190041 84.911552,111.591095 
	C86.333939,109.547905 87.693817,107.850159 89.390411,106.100266 
	C90.805786,105.787666 91.884445,105.527222 93.167023,105.464890 
	C93.919891,105.800667 94.468842,105.938316 94.789490,106.322807 
	C93.349533,106.817902 92.137878,107.066154 90.838646,107.332352 
	C91.602448,107.908951 92.321785,108.451988 93.029068,109.323357 
	C93.020409,110.089149 93.023796,110.526619 93.021210,111.363586 
	C92.627426,114.935120 94.654922,115.153481 96.981331,115.006310 
	C96.984421,115.172951 96.987518,115.339592 96.995148,116.021255 
	C97.000633,116.713020 97.001579,116.889763 97.002533,117.066513 
	C97.002533,117.066513 96.579079,117.096939 96.009331,117.062035 
	C94.624130,117.355621 93.808678,117.684113 92.993225,118.012604 
	C92.254166,118.021187 91.515114,118.029762 90.272232,117.880814 
	C89.510048,118.118187 89.251694,118.513092 88.993347,118.907997 
	C88.431511,119.117538 87.869675,119.327072 86.847916,119.987442 
	C84.921867,120.954956 83.455734,121.471649 81.989601,121.988335 
z"/>
<path fill="#E5A64E" opacity="1.000000" stroke="none" 
	d="
M93.041122,108.995026 
	C92.321785,108.451988 91.602448,107.908951 90.838646,107.332352 
	C92.137878,107.066154 93.349533,106.817902 94.815605,106.117111 
	C95.070023,105.664566 95.126556,105.255310 95.343292,105.215309 
	C95.560028,105.175308 95.967140,105.006287 96.336929,105.060623 
	C97.448761,105.136497 98.190804,105.158028 99.112587,105.483032 
	C101.192703,105.864708 103.093063,105.942894 104.993431,106.021080 
	C104.993431,106.021080 105.469368,106.042961 105.698250,106.106873 
	C104.797028,107.856689 103.996155,110.138214 102.416725,111.011276 
	C101.425797,111.559036 99.265244,109.990898 96.988403,109.216064 
	C95.901733,109.061600 95.456108,109.063148 94.682472,109.041023 
	C93.916679,109.009903 93.478905,109.002464 93.041122,108.995026 
z"/>
<path fill="#DF9916" opacity="1.000000" stroke="none" 
	d="
M95.010483,109.064697 
	C95.456108,109.063148 95.901733,109.061600 96.680298,109.095093 
	C97.007996,110.806946 97.002762,112.483765 96.989426,114.583443 
	C94.654922,115.153481 92.627426,114.935120 93.334114,111.332916 
	C94.105476,110.290062 94.557976,109.677376 95.010483,109.064697 
z"/>
<path fill="#DF9916" opacity="1.000000" stroke="none" 
	d="
M97.261299,117.072052 
	C97.001579,116.889763 97.000633,116.713020 96.999512,116.271225 
	C97.270393,116.205025 97.541451,116.403870 97.925049,116.834450 
	C97.865097,117.069984 97.692581,117.073784 97.261299,117.072052 
z"/>
<path fill="#DF9916" opacity="1.000000" stroke="none" 
	d="
M81.994034,121.993271 
	C83.455734,121.471649 84.921867,120.954956 86.665207,120.229538 
	C86.953804,120.805283 86.965187,121.589760 86.981384,122.771271 
	C86.826996,123.985802 86.667793,124.803299 86.254189,125.817291 
	C84.795898,125.515594 83.592010,125.017410 82.193871,123.925613 
	C81.995926,122.884773 81.992233,122.437546 81.988541,121.990318 
	C81.988533,121.990318 81.998459,121.998199 81.994034,121.993271 
z"/>
<path fill="#DF9916" opacity="1.000000" stroke="none" 
	d="
M93.275131,118.140297 
	C93.808678,117.684113 94.624130,117.355621 95.797241,117.053139 
	C95.288940,117.475433 94.422989,117.871712 93.275131,118.140297 
z"/>
<path fill="#DF9916" opacity="1.000000" stroke="none" 
	d="
M89.212738,118.831497 
	C89.251694,118.513092 89.510048,118.118187 89.902939,117.896393 
	C89.917351,118.370132 89.715569,118.598625 89.212738,118.831497 
z"/>
<path fill="#191133" opacity="1.000000" stroke="none" 
	d="
M105.120987,105.713943 
	C103.093063,105.942894 101.192703,105.864708 99.096558,105.148193 
	C97.934166,103.673035 96.967545,102.836212 96.173019,101.735329 
	C96.894806,100.648598 97.444489,99.825928 97.994171,99.003250 
	C99.112343,98.692329 100.230522,98.381416 101.701752,98.051277 
	C103.497833,98.569710 104.940857,99.107368 106.258186,99.598198 
	C105.917084,101.560623 105.582817,103.483711 105.120987,105.713943 
z"/>
<path fill="#2E194F" opacity="1.000000" stroke="none" 
	d="
M97.718445,98.764542 
	C97.444489,99.825928 96.894806,100.648598 95.915283,101.735474 
	C95.313622,102.000954 95.141808,102.002235 94.606270,101.959641 
	C93.199768,100.224335 92.251266,98.463928 91.081642,96.865303 
	C90.278183,95.767136 89.167664,94.893623 88.014458,93.650513 
	C87.547356,92.591080 87.260185,91.800827 86.977371,90.756454 
	C86.979904,90.332909 86.978088,90.163483 86.977043,89.620262 
	C86.560173,85.135841 84.186943,83.147987 80.092232,82.637497 
	C79.981949,81.877357 79.934273,81.440514 79.793976,80.743828 
	C79.411995,80.262398 79.122643,80.040817 78.833290,79.819229 
	C79.612755,79.226120 80.392220,78.633018 81.448570,77.910233 
	C83.275642,79.154366 84.825821,80.528191 86.732544,81.896591 
	C87.089073,81.891167 87.076439,81.924362 87.055359,82.294800 
	C87.699272,83.435669 88.364258,84.206100 89.029251,84.976524 
	C89.029251,84.976524 89.001831,84.999695 88.995529,85.344193 
	C89.236649,87.833824 90.010857,88.681351 91.869400,86.857986 
	C91.869400,86.857986 91.894348,86.976234 92.169472,86.826035 
	C92.948761,86.116768 93.452927,85.557709 93.957092,84.998650 
	C95.443748,86.902229 96.930405,88.805809 98.717514,90.857300 
	C98.492882,93.512085 97.967796,96.018967 97.718445,98.764542 
z"/>
<path fill="#8B1B6E" opacity="1.000000" stroke="none" 
	d="
M65.983284,100.984413 
	C65.521233,101.311813 65.059181,101.639214 64.298874,101.988144 
	C62.135010,101.844185 60.269409,101.678688 58.199875,101.255402 
	C60.385181,96.632675 56.125267,99.351189 55.143044,97.875038 
	C55.676453,96.206894 56.338760,95.104317 57.353016,93.849030 
	C59.479382,93.457100 61.253803,93.217888 63.365829,93.139275 
	C64.463387,95.861389 65.223335,98.422897 65.983284,100.984413 
z"/>
<path fill="#9F145A" opacity="1.000000" stroke="none" 
	d="
M59.006393,113.520889 
	C58.214802,113.733437 57.418629,113.505867 56.069527,113.142525 
	C55.339436,113.010292 55.162273,113.013832 54.985115,113.017365 
	C54.985115,113.017365 54.995304,113.003937 54.987732,113.012505 
	C55.580570,110.725433 56.180981,108.429794 56.781387,106.134155 
	C60.846130,107.387016 58.253601,110.767807 59.006393,113.520889 
z"/>
<path fill="#691862" opacity="1.000000" stroke="none" 
	d="
M57.001068,94.001747 
	C56.338760,95.104317 55.676453,96.206894 54.959900,97.629089 
	C53.152676,97.144897 51.399696,96.341080 49.806091,95.610336 
	C48.106651,96.740776 46.410931,97.868744 44.341553,98.999954 
	C44.610973,97.834122 45.254047,96.665039 45.904022,95.185387 
	C45.910927,94.874809 45.919151,94.420586 46.352375,94.206146 
	C47.520168,92.994347 48.254738,91.997002 48.994354,90.998993 
	C48.999405,90.998329 49.003704,90.988708 49.399605,90.945297 
	C52.193779,90.603233 54.592049,90.304588 56.949032,90.321312 
	C57.346088,91.747078 53.119247,92.986855 57.001068,94.001747 
z"/>
<path fill="#731C53" opacity="1.000000" stroke="none" 
	d="
M66.268669,100.998123 
	C65.223335,98.422897 64.463387,95.861389 63.360764,92.769714 
	C63.028782,91.499229 63.039474,90.758919 63.398224,90.018936 
	C65.132149,90.673325 66.518013,91.327385 68.000389,92.421661 
	C68.016739,95.541687 67.936577,98.221497 67.856415,100.901314 
	C67.856415,100.901314 67.490730,100.988434 67.306900,101.026382 
	C66.933395,101.046829 66.743721,101.029327 66.268669,100.998123 
z"/>
<path fill="#9B1669" opacity="1.000000" stroke="none" 
	d="
M55.079140,113.188644 
	C55.162273,113.013832 55.339436,113.010292 55.782944,113.009041 
	C55.757252,113.127525 55.465210,113.243721 55.079140,113.188644 
z"/>
<path fill="#371D5F" opacity="1.000000" stroke="none" 
	d="
M43.714687,91.142853 
	C43.714687,91.142853 43.309746,91.178329 43.146000,91.057800 
	C42.985115,89.889961 42.987976,88.842659 42.983063,87.402985 
	C45.282120,85.243202 47.588951,83.475792 49.951088,81.370926 
	C51.429405,80.355415 52.852413,79.677353 54.604134,79.322205 
	C55.223789,80.762131 55.514732,81.879150 55.869225,83.244949 
	C55.956421,83.663261 55.980072,83.832802 56.015968,84.337166 
	C55.455368,85.447372 55.003494,86.366966 54.285469,86.969254 
	C52.592327,88.389481 50.772366,89.658516 49.003700,90.988708 
	C49.003704,90.988708 48.999405,90.998329 48.738312,90.890060 
	C47.981701,90.531593 47.486187,90.281387 46.642063,90.057281 
	C45.433861,90.436539 44.574272,90.789696 43.714687,91.142853 
z"/>
<path fill="#D4871D" opacity="1.000000" stroke="none" 
	d="
M83.954697,112.165802 
	C82.511917,113.351860 81.069130,114.537926 79.313690,115.427727 
	C79.212479,111.830948 79.423920,108.530426 79.672890,104.644051 
	C76.538811,105.619789 76.740631,112.386635 72.994133,106.997543 
	C72.994133,106.997543 73.005829,106.502090 73.324463,106.076813 
	C74.093590,104.105698 74.544090,102.559860 75.312805,100.843811 
	C76.425629,98.114616 77.220230,95.555626 78.240402,92.811996 
	C78.646164,92.081650 78.826363,91.535950 79.248810,90.991562 
	C79.491066,90.992874 79.975571,90.991272 80.060097,91.351036 
	C79.990593,98.752335 80.425522,105.682190 83.994034,112.057205 
	C83.993057,112.096703 83.954697,112.165802 83.954697,112.165802 
z"/>
<path fill="#E19A0C" opacity="1.000000" stroke="none" 
	d="
M72.713615,107.202988 
	C76.740631,112.386635 76.538811,105.619789 79.672890,104.644051 
	C79.423920,108.530426 79.212479,111.830948 78.996460,115.564171 
	C76.259346,115.340767 73.526802,114.684662 70.410919,114.035492 
	C70.829414,111.831085 71.631256,109.619751 72.713615,107.202988 
z"/>
<path fill="#B67612" opacity="1.000000" stroke="none" 
	d="
M74.994583,101.014023 
	C74.544090,102.559860 74.093590,104.105698 73.333374,105.829178 
	C71.496704,104.431244 69.969749,102.855659 68.149597,101.090698 
	C67.936577,98.221497 68.016739,95.541687 68.041031,92.151398 
	C68.036186,91.265976 68.087212,91.091034 68.438896,90.950256 
	C69.141556,91.013313 69.543571,91.042213 69.969894,91.412247 
	C70.355347,92.818802 70.716492,93.884239 71.084396,95.308876 
	C72.392296,97.450066 73.693436,99.232040 74.994583,101.014023 
z"/>
<path fill="#56102E" opacity="1.000000" stroke="none" 
	d="
M93.966515,84.568665 
	C93.452927,85.557709 92.948761,86.116768 92.172646,86.765907 
	C92.221146,84.173767 92.541595,81.491539 92.924225,78.411789 
	C92.986397,78.014267 93.461029,78.061043 93.693901,78.110275 
	C93.926773,78.159515 93.922073,78.564072 93.929100,78.765778 
	C93.949402,80.691216 93.962669,82.414948 93.966515,84.568665 
z"/>
<path fill="#56102E" opacity="1.000000" stroke="none" 
	d="
M89.039795,84.656189 
	C88.364258,84.206100 87.699272,83.435669 87.065582,82.304420 
	C87.545799,82.229065 87.994705,82.514542 88.675858,82.931435 
	C88.955505,83.487190 89.002922,83.911522 89.039795,84.656189 
z"/>
<path fill="#56102E" opacity="1.000000" stroke="none" 
	d="
M91.612457,86.740204 
	C90.010857,88.681351 89.236649,87.833824 89.007332,85.332893 
	C89.802124,85.525536 90.578819,86.073982 91.612457,86.740204 
z"/>
<path fill="#C2BFBF" opacity="1.000000" stroke="none" 
	d="
M70.980354,76.822113 
	C65.547630,69.812836 69.944695,61.965862 69.138306,54.071152 
	C70.647934,53.907722 72.103004,54.240116 73.814133,54.755859 
	C71.104118,56.732666 71.628296,58.782570 72.574127,61.824142 
	C73.778481,65.697021 73.508507,70.028366 73.543457,74.637802 
	C72.815880,75.682289 72.418945,76.251045 71.761734,76.882278 
	C71.327759,76.903877 71.154053,76.862999 70.980354,76.822113 
z"/>
<path fill="#190E1A" opacity="1.000000" stroke="none" 
	d="
M70.607040,76.888763 
	C71.154053,76.862999 71.327759,76.903877 72.076248,76.942459 
	C73.070175,76.882172 73.489304,76.824196 73.908440,76.766220 
	C74.080620,76.801544 74.252800,76.836868 74.701202,77.186142 
	C74.977425,77.500099 75.000519,77.966042 74.720581,78.152168 
	C74.266068,79.210823 74.091499,80.083359 73.500961,80.994156 
	C71.015282,81.651154 68.945580,82.269875 66.515053,82.912659 
	C65.435249,82.866554 64.716278,82.796379 64.013618,82.346909 
	C64.362801,79.962296 64.695656,77.956970 65.028519,75.951645 
	C65.797241,76.284554 66.565956,76.617462 67.653763,76.874657 
	C68.726479,76.851105 69.480110,76.903252 70.607040,76.888763 
z"/>
<path fill="#341B09" opacity="1.000000" stroke="none" 
	d="
M75.000519,77.966042 
	C75.000519,77.966042 74.977425,77.500099 74.951813,77.268028 
	C75.995155,77.955986 77.064102,78.876022 78.483170,79.807640 
	C79.122643,80.040817 79.411995,80.262398 79.387238,80.736740 
	C77.711212,81.048332 76.349304,81.107185 75.055519,81.102951 
	C75.123642,81.039864 75.061417,80.863976 75.039688,80.502472 
	C75.012154,79.415985 75.006340,78.691017 75.000519,77.966042 
z"/>
<path fill="#D5D4D2" opacity="1.000000" stroke="none" 
	d="
M73.898621,76.486526 
	C73.489304,76.824196 73.070175,76.882172 72.336525,76.879974 
	C72.418945,76.251045 72.815880,75.682289 73.495453,75.104897 
	C73.814995,75.466446 73.851898,75.836639 73.898621,76.486526 
z"/>
<path fill="#852729" opacity="1.000000" stroke="none" 
	d="
M75.344513,37.849854 
	C75.807724,37.496586 76.596161,37.250858 77.707932,37.042046 
	C77.244095,37.371773 76.456924,37.664581 75.344513,37.849854 
z"/>
<path fill="#5F0D17" opacity="1.000000" stroke="none" 
	d="
M65.019592,75.538208 
	C64.695656,77.956970 64.362801,79.962296 63.658852,82.424194 
	C61.551113,83.297432 59.814461,83.714088 58.381729,83.926498 
	C59.413952,81.176636 60.582470,78.654770 60.721592,76.077347 
	C60.820507,74.244820 60.015305,71.713264 56.893909,73.006973 
	C56.318554,68.261429 58.613064,64.968552 62.571266,62.213806 
	C63.579662,66.413628 64.295158,70.769203 65.019592,75.538208 
z"/>
<path fill="#96090A" opacity="1.000000" stroke="none" 
	d="
M56.831841,73.286926 
	C60.015305,71.713264 60.820507,74.244820 60.721592,76.077347 
	C60.582470,78.654770 59.413952,81.176636 58.034645,83.901413 
	C56.923668,84.054489 56.463699,84.028412 56.003727,84.002335 
	C55.980072,83.832802 55.956421,83.663261 55.926025,82.803452 
	C55.893364,79.743050 55.867439,77.372925 55.841515,75.002800 
	C56.150936,74.524162 56.460354,74.045517 56.831841,73.286926 
z"/>
<path fill="#281B45" opacity="1.000000" stroke="none" 
	d="
M55.605682,75.258636 
	C55.867439,77.372925 55.893364,79.743050 55.862484,82.554672 
	C55.514732,81.879150 55.223789,80.762131 54.954460,79.315109 
	C55.107334,77.828232 55.238594,76.671349 55.605682,75.258636 
z"/>
<path fill="#DF9916" opacity="1.000000" stroke="none" 
	d="
M84.849030,111.936546 
	C84.764091,113.190041 84.679153,114.443542 84.291626,115.847099 
	C83.994804,114.973343 84.000572,113.949516 83.980515,112.545746 
	C83.954697,112.165802 83.993057,112.096703 84.206993,112.031143 
	C84.420929,111.965576 84.849030,111.936546 84.849030,111.936546 
z"/>
<path fill="#E09B0F" opacity="1.000000" stroke="none" 
	d="
M81.689529,122.030045 
	C81.992233,122.437546 81.995926,122.884773 81.999046,123.667404 
	C81.478409,123.768471 80.958351,123.534126 80.438293,123.299789 
	C80.755707,122.889778 81.073112,122.479774 81.689529,122.030045 
z"/>
<path fill="#561C59" opacity="1.000000" stroke="none" 
	d="
M46.990677,90.031189 
	C47.486187,90.281387 47.981701,90.531593 48.733261,90.890724 
	C48.254738,91.997002 47.520168,92.994347 46.416946,93.988365 
	C46.048290,93.985031 45.875668,93.602943 46.018211,93.082962 
	C46.437397,91.719048 46.714035,90.875122 46.990677,90.031189 
z"/>
<path fill="#512146" opacity="1.000000" stroke="none" 
	d="
M46.642059,90.057281 
	C46.714035,90.875122 46.437397,91.719048 46.026573,92.873497 
	C45.276039,92.673691 44.659679,92.163376 43.879005,91.397949 
	C44.574272,90.789696 45.433861,90.436539 46.642059,90.057281 
z"/>
<path fill="#5B1E3E" opacity="1.000000" stroke="none" 
	d="
M84.911545,111.591095 
	C84.849030,111.936546 84.420929,111.965576 84.207962,111.991638 
	C80.425522,105.682190 79.990593,98.752335 80.111382,90.982483 
	C80.016991,89.516106 79.955849,88.778046 80.001129,87.679016 
	C80.176949,86.569077 80.246330,85.820107 80.547195,85.348068 
	C81.201828,88.746407 81.624969,91.867821 82.052933,95.289795 
	C82.376892,96.060265 82.696045,96.530151 83.330536,97.145569 
	C84.754837,97.537071 85.863792,97.783035 87.017853,98.409470 
	C87.726540,101.244095 88.390114,103.698250 89.053688,106.152412 
	C87.693817,107.850159 86.333939,109.547905 84.911545,111.591095 
z"/>
<path fill="#411E54" opacity="1.000000" stroke="none" 
	d="
M89.390411,106.100266 
	C88.390114,103.698250 87.726540,101.244095 87.035873,98.046661 
	C87.403976,96.175499 87.799187,95.047592 88.194397,93.919693 
	C89.167664,94.893623 90.278183,95.767136 91.081642,96.865303 
	C92.251266,98.463928 93.199768,100.224335 94.738182,102.253220 
	C95.478249,103.395882 95.722694,104.201088 95.967140,105.006287 
	C95.967140,105.006287 95.560028,105.175308 94.985931,105.120110 
	C93.928925,105.132195 93.446014,105.199486 92.963097,105.266777 
	C91.884445,105.527222 90.805786,105.787666 89.390411,106.100266 
z"/>
<path fill="#D6892B" opacity="1.000000" stroke="none" 
	d="
M94.682465,109.041016 
	C94.557976,109.677376 94.105476,110.290062 93.340088,110.933411 
	C93.023796,110.526619 93.020409,110.089149 93.029068,109.323357 
	C93.478905,109.002464 93.916679,109.009903 94.682465,109.041016 
z"/>
<path fill="#AE8031" opacity="1.000000" stroke="none" 
	d="
M93.167023,105.464890 
	C93.446014,105.199486 93.928925,105.132195 94.769196,105.160110 
	C95.126556,105.255310 95.070023,105.664566 95.043900,105.870270 
	C94.468842,105.938316 93.919891,105.800667 93.167023,105.464890 
z"/>
<path fill="#1F1643" opacity="1.000000" stroke="none" 
	d="
M96.336929,105.060623 
	C95.722694,104.201088 95.478249,103.395882 95.101898,102.297104 
	C95.141808,102.002235 95.313622,102.000954 95.743179,101.999535 
	C96.967545,102.836212 97.934166,103.673035 98.916809,104.844711 
	C98.190804,105.158028 97.448761,105.136497 96.336929,105.060623 
z"/>
<path fill="#F9BF0E" opacity="1.000000" stroke="none" 
	d="
M80.315720,85.071129 
	C80.246330,85.820107 80.176949,86.569077 79.747986,87.881485 
	C79.261131,89.293358 79.133842,90.141800 79.006561,90.990242 
	C78.826363,91.535950 78.646164,92.081650 77.959534,93.008865 
	C76.031456,96.786568 73.538483,95.802437 71.077637,94.949669 
	C70.716492,93.884239 70.355347,92.818802 69.986572,90.966766 
	C69.978935,87.703072 69.978935,85.225990 69.978935,82.748901 
	C70.351509,82.703156 70.724083,82.657402 71.096657,82.611649 
	C71.931984,84.504868 72.767303,86.398079 73.602631,88.291290 
	C73.936394,88.257919 74.270164,88.224548 74.603928,88.191177 
	C74.731750,85.849464 74.859573,83.507744 74.987396,81.166031 
	C76.349304,81.107185 77.711212,81.048332 79.479858,80.996582 
	C79.934273,81.440514 79.981949,81.877357 80.021164,82.993858 
	C80.113708,84.139389 80.214714,84.605255 80.315720,85.071129 
z"/>
<path fill="#4B235E" opacity="1.000000" stroke="none" 
	d="
M80.547203,85.348068 
	C80.214714,84.605255 80.113708,84.139389 80.083778,83.317154 
	C84.186943,83.147987 86.560173,85.135841 86.810509,89.711166 
	C86.580200,90.284531 86.438080,90.452263 86.467621,90.491821 
	C86.610817,90.683601 86.800072,90.840996 86.973015,91.010567 
	C87.260185,91.800827 87.547356,92.591080 88.014458,93.650513 
	C87.799187,95.047592 87.403976,96.175499 86.990753,97.666199 
	C85.863792,97.783035 84.754837,97.537071 83.307480,96.850304 
	C82.662079,95.936081 82.355095,95.462654 82.048111,94.989227 
	C81.624969,91.867821 81.201828,88.746407 80.547203,85.348068 
M84.550148,95.351265 
	C84.782097,95.045761 85.014046,94.740265 85.246002,94.434769 
	C84.926666,94.632225 84.607338,94.829681 84.550148,95.351265 
z"/>
<path fill="#411E54" opacity="1.000000" stroke="none" 
	d="
M86.977371,90.756454 
	C86.800072,90.840996 86.610817,90.683601 86.467621,90.491821 
	C86.438080,90.452263 86.580200,90.284531 86.809746,90.084976 
	C86.978088,90.163483 86.979904,90.332909 86.977371,90.756454 
z"/>
<path fill="#671D71" opacity="1.000000" stroke="none" 
	d="
M63.050171,90.018600 
	C63.039474,90.758919 63.028782,91.499229 63.023155,92.609116 
	C61.253803,93.217888 59.479382,93.457100 57.353016,93.849030 
	C53.119247,92.986855 57.346088,91.747078 57.139893,90.054527 
	C59.264751,89.654442 61.157459,89.836525 63.050171,90.018600 
z"/>
<path fill="#561C59" opacity="1.000000" stroke="none" 
	d="
M63.398224,90.018936 
	C61.157459,89.836525 59.264751,89.654442 57.181179,89.739151 
	C54.592049,90.304588 52.193779,90.603233 49.399605,90.945297 
	C50.772366,89.658516 52.592327,88.389481 54.285469,86.969254 
	C55.003494,86.366966 55.455368,85.447372 56.015968,84.337166 
	C56.463699,84.028412 56.923668,84.054489 57.730724,84.105652 
	C59.814461,83.714088 61.551113,83.297432 63.642536,82.803490 
	C64.716278,82.796379 65.435249,82.866554 66.715500,83.280052 
	C67.563934,86.054283 67.851089,88.485191 68.138245,90.916092 
	C68.087212,91.091034 68.036186,91.265976 67.944519,91.711182 
	C66.518013,91.327385 65.132149,90.673325 63.398224,90.018936 
z"/>
<path fill="#EF9720" opacity="1.000000" stroke="none" 
	d="
M71.084396,95.308876 
	C73.538483,95.802437 76.031456,96.786568 77.733963,93.193504 
	C77.220230,95.555626 76.425629,98.114616 75.312805,100.843811 
	C73.693436,99.232040 72.392296,97.450066 71.084396,95.308876 
z"/>
<path fill="#EF9720" opacity="1.000000" stroke="none" 
	d="
M79.248810,90.991562 
	C79.133842,90.141800 79.261131,89.293358 79.641563,88.242447 
	C79.955849,88.778046 80.016991,89.516106 80.026855,90.622719 
	C79.975571,90.991272 79.491066,90.992874 79.248810,90.991562 
z"/>
<path fill="#E1A937" opacity="1.000000" stroke="none" 
	d="
M68.438896,90.950256 
	C67.851089,88.485191 67.563934,86.054283 67.076324,83.255989 
	C68.945580,82.269875 71.015282,81.651154 73.791534,81.023155 
	C74.685867,80.963913 74.873642,80.913940 75.061417,80.863976 
	C75.061417,80.863976 75.123642,81.039864 75.055511,81.102951 
	C74.859573,83.507744 74.731750,85.849464 74.603928,88.191177 
	C74.270164,88.224548 73.936394,88.257919 73.602631,88.291290 
	C72.767303,86.398079 71.931984,84.504868 71.096657,82.611649 
	C70.724083,82.657402 70.351509,82.703156 69.978935,82.748901 
	C69.978935,85.225990 69.978935,87.703072 69.962257,90.625633 
	C69.543571,91.042213 69.141556,91.013313 68.438896,90.950256 
z"/>
<path fill="#7F261F" opacity="1.000000" stroke="none" 
	d="
M75.039688,80.502472 
	C74.873642,80.913940 74.685867,80.963913 74.207504,80.984879 
	C74.091499,80.083359 74.266068,79.210823 74.720581,78.152168 
	C75.006340,78.691017 75.012154,79.415985 75.039688,80.502472 
z"/>
<path fill="#411E54" opacity="1.000000" stroke="none" 
	d="
M82.052933,95.289795 
	C82.355095,95.462654 82.662079,95.936081 82.992126,96.704773 
	C82.696045,96.530151 82.376892,96.060265 82.052933,95.289795 
z"/>
<path fill="#411E54" opacity="1.000000" stroke="none" 
	d="
M84.419075,95.189201 
	C84.607338,94.829681 84.926666,94.632225 85.246002,94.434769 
	C85.014046,94.740265 84.782097,95.045761 84.419075,95.189201 
z"/>
</svg>